<mxfile host="app.diagrams.net" modified="2022-12-24T22:36:40.634Z" agent="5.0 (Windows NT 6.3; Win64; x64) AppleWebKit/537.36 (KHTML, like Gecko) Chrome/108.0.0.0 Safari/537.36" etag="JMAAmuOso6PKnHo6ZQ_q" version="20.7.4" type="github">
  <diagram id="rZF4juMHFyknxpGw09P5" name="Страница 1">
    <mxGraphModel dx="880" dy="484" grid="1" gridSize="10" guides="1" tooltips="1" connect="1" arrows="1" fold="1" page="1" pageScale="1" pageWidth="1654" pageHeight="1169" background="#ffffff" math="0" shadow="0">
      <root>
        <mxCell id="0" />
        <mxCell id="1" parent="0" />
        <mxCell id="Bq8YwkVixV0gdx73ny14-5" value="" style="edgeStyle=orthogonalEdgeStyle;rounded=0;orthogonalLoop=1;jettySize=auto;html=1;labelBackgroundColor=none;strokeColor=#736CA8;fontColor=default;" parent="1" source="Bq8YwkVixV0gdx73ny14-1" edge="1">
          <mxGeometry relative="1" as="geometry">
            <mxPoint x="430" y="170" as="targetPoint" />
          </mxGeometry>
        </mxCell>
        <mxCell id="Bq8YwkVixV0gdx73ny14-1" value="Start" style="ellipse;whiteSpace=wrap;html=1;labelBackgroundColor=none;fillColor=#5D7F99;strokeColor=#D0CEE2;fontColor=#1A1A1A;" parent="1" vertex="1">
          <mxGeometry x="370" y="40" width="120" height="80" as="geometry" />
        </mxCell>
        <mxCell id="Bq8YwkVixV0gdx73ny14-7" value="" style="edgeStyle=orthogonalEdgeStyle;rounded=0;orthogonalLoop=1;jettySize=auto;html=1;labelBackgroundColor=none;strokeColor=#736CA8;fontColor=default;" parent="1" source="Bq8YwkVixV0gdx73ny14-4" edge="1">
          <mxGeometry relative="1" as="geometry">
            <mxPoint x="435" y="330" as="targetPoint" />
          </mxGeometry>
        </mxCell>
        <mxCell id="Bq8YwkVixV0gdx73ny14-4" value="string[] arr = new string[] &lt;br&gt;{ &quot;&quot;, &quot;&quot;, &quot;&quot;,&amp;nbsp; ...}" style="shape=parallelogram;perimeter=parallelogramPerimeter;whiteSpace=wrap;html=1;fixedSize=1;labelBackgroundColor=none;fillColor=#5D7F99;strokeColor=#D0CEE2;fontColor=#1A1A1A;" parent="1" vertex="1">
          <mxGeometry x="300" y="170" width="270" height="110" as="geometry" />
        </mxCell>
        <mxCell id="Bq8YwkVixV0gdx73ny14-9" value="" style="edgeStyle=orthogonalEdgeStyle;rounded=0;orthogonalLoop=1;jettySize=auto;html=1;labelBackgroundColor=none;strokeColor=#736CA8;fontColor=default;" parent="1" source="Bq8YwkVixV0gdx73ny14-6" target="Bq8YwkVixV0gdx73ny14-8" edge="1">
          <mxGeometry relative="1" as="geometry">
            <Array as="points">
              <mxPoint x="440" y="470" />
              <mxPoint x="440" y="470" />
            </Array>
          </mxGeometry>
        </mxCell>
        <mxCell id="Bq8YwkVixV0gdx73ny14-6" value="index = 0&lt;br&gt;int maxWordLength = 3" style="whiteSpace=wrap;html=1;labelBackgroundColor=none;fillColor=#5D7F99;strokeColor=#D0CEE2;fontColor=#1A1A1A;" parent="1" vertex="1">
          <mxGeometry x="370" y="330" width="130" height="70" as="geometry" />
        </mxCell>
        <mxCell id="Bq8YwkVixV0gdx73ny14-11" value="Yes" style="edgeStyle=orthogonalEdgeStyle;rounded=0;orthogonalLoop=1;jettySize=auto;html=1;labelBackgroundColor=none;strokeColor=#736CA8;fontColor=default;" parent="1" source="Bq8YwkVixV0gdx73ny14-8" edge="1">
          <mxGeometry relative="1" as="geometry">
            <mxPoint x="435" y="620" as="targetPoint" />
          </mxGeometry>
        </mxCell>
        <mxCell id="Bq8YwkVixV0gdx73ny14-22" value="" style="edgeStyle=orthogonalEdgeStyle;rounded=0;orthogonalLoop=1;jettySize=auto;html=1;labelBackgroundColor=none;strokeColor=#736CA8;fontColor=default;" parent="1" source="Bq8YwkVixV0gdx73ny14-8" target="Bq8YwkVixV0gdx73ny14-13" edge="1">
          <mxGeometry relative="1" as="geometry" />
        </mxCell>
        <mxCell id="Bq8YwkVixV0gdx73ny14-23" value="No" style="edgeLabel;html=1;align=center;verticalAlign=middle;resizable=0;points=[];labelBackgroundColor=none;fontColor=#1A1A1A;" parent="Bq8YwkVixV0gdx73ny14-22" vertex="1" connectable="0">
          <mxGeometry x="-0.3333" y="1" relative="1" as="geometry">
            <mxPoint as="offset" />
          </mxGeometry>
        </mxCell>
        <mxCell id="Bq8YwkVixV0gdx73ny14-8" value="index &amp;lt; array.Length?" style="rhombus;whiteSpace=wrap;html=1;labelBackgroundColor=none;fillColor=#5D7F99;strokeColor=#D0CEE2;fontColor=#1A1A1A;" parent="1" vertex="1">
          <mxGeometry x="360" y="470" width="150" height="95" as="geometry" />
        </mxCell>
        <mxCell id="Bq8YwkVixV0gdx73ny14-27" value="" style="edgeStyle=orthogonalEdgeStyle;rounded=0;orthogonalLoop=1;jettySize=auto;html=1;entryX=0;entryY=0.75;entryDx=0;entryDy=0;labelBackgroundColor=none;strokeColor=#736CA8;fontColor=default;" parent="1" source="Bq8YwkVixV0gdx73ny14-10" target="Bq8YwkVixV0gdx73ny14-13" edge="1">
          <mxGeometry relative="1" as="geometry">
            <mxPoint x="625" y="667.5" as="targetPoint" />
          </mxGeometry>
        </mxCell>
        <mxCell id="Bq8YwkVixV0gdx73ny14-28" value="Yes" style="edgeLabel;html=1;align=center;verticalAlign=middle;resizable=0;points=[];labelBackgroundColor=none;fontColor=#1A1A1A;" parent="Bq8YwkVixV0gdx73ny14-27" vertex="1" connectable="0">
          <mxGeometry x="-0.4" y="-1" relative="1" as="geometry">
            <mxPoint y="1" as="offset" />
          </mxGeometry>
        </mxCell>
        <mxCell id="Bq8YwkVixV0gdx73ny14-30" value="No" style="edgeStyle=orthogonalEdgeStyle;rounded=0;orthogonalLoop=1;jettySize=auto;html=1;labelBackgroundColor=none;strokeColor=#736CA8;fontColor=default;" parent="1" source="Bq8YwkVixV0gdx73ny14-10" edge="1">
          <mxGeometry relative="1" as="geometry">
            <mxPoint x="310" y="668" as="targetPoint" />
          </mxGeometry>
        </mxCell>
        <mxCell id="Bq8YwkVixV0gdx73ny14-10" value="arr[i].Length &amp;lt;= maxWordLength?" style="rhombus;whiteSpace=wrap;html=1;labelBackgroundColor=none;fillColor=#5D7F99;strokeColor=#D0CEE2;fontColor=#1A1A1A;" parent="1" vertex="1">
          <mxGeometry x="360" y="620" width="150" height="95" as="geometry" />
        </mxCell>
        <mxCell id="Bq8YwkVixV0gdx73ny14-41" value="" style="edgeStyle=orthogonalEdgeStyle;rounded=0;orthogonalLoop=1;jettySize=auto;html=1;labelBackgroundColor=none;strokeColor=#736CA8;fontColor=default;" parent="1" source="Bq8YwkVixV0gdx73ny14-13" edge="1">
          <mxGeometry relative="1" as="geometry">
            <mxPoint x="750" y="565" as="targetPoint" />
          </mxGeometry>
        </mxCell>
        <mxCell id="Bq8YwkVixV0gdx73ny14-13" value="string[] arr = new string[] {array[i] ...}&lt;br&gt;OR&amp;nbsp;&lt;br&gt;string[] arr = []" style="shape=document;whiteSpace=wrap;html=1;boundedLbl=1;labelBackgroundColor=none;fillColor=#5D7F99;strokeColor=#D0CEE2;fontColor=#1A1A1A;" parent="1" vertex="1">
          <mxGeometry x="550" y="520" width="130" height="90" as="geometry" />
        </mxCell>
        <mxCell id="Bq8YwkVixV0gdx73ny14-29" value="index++" style="whiteSpace=wrap;html=1;labelBackgroundColor=none;fillColor=#5D7F99;strokeColor=#D0CEE2;fontColor=#1A1A1A;" parent="1" vertex="1">
          <mxGeometry x="190" y="637.5" width="120" height="60" as="geometry" />
        </mxCell>
        <mxCell id="Bq8YwkVixV0gdx73ny14-33" value="" style="endArrow=none;html=1;rounded=0;labelBackgroundColor=none;strokeColor=#736CA8;fontColor=default;" parent="1" edge="1">
          <mxGeometry x="-0.5152" y="60" width="50" height="50" relative="1" as="geometry">
            <mxPoint x="530" y="760" as="sourcePoint" />
            <mxPoint x="530" y="670" as="targetPoint" />
            <Array as="points">
              <mxPoint x="530" y="740" />
            </Array>
            <mxPoint as="offset" />
          </mxGeometry>
        </mxCell>
        <mxCell id="Bq8YwkVixV0gdx73ny14-35" value="" style="endArrow=none;html=1;rounded=0;labelBackgroundColor=none;strokeColor=#736CA8;fontColor=default;" parent="1" edge="1">
          <mxGeometry width="50" height="50" relative="1" as="geometry">
            <mxPoint x="240" y="760" as="sourcePoint" />
            <mxPoint x="530" y="760" as="targetPoint" />
            <Array as="points">
              <mxPoint x="430" y="760" />
            </Array>
          </mxGeometry>
        </mxCell>
        <mxCell id="Bq8YwkVixV0gdx73ny14-36" value="" style="endArrow=classic;html=1;rounded=0;entryX=0.417;entryY=1.042;entryDx=0;entryDy=0;entryPerimeter=0;labelBackgroundColor=none;strokeColor=#736CA8;fontColor=default;" parent="1" target="Bq8YwkVixV0gdx73ny14-29" edge="1">
          <mxGeometry x="0.7143" y="-50" width="50" height="50" relative="1" as="geometry">
            <mxPoint x="240" y="760" as="sourcePoint" />
            <mxPoint x="240" y="710" as="targetPoint" />
            <mxPoint as="offset" />
          </mxGeometry>
        </mxCell>
        <mxCell id="Bq8YwkVixV0gdx73ny14-37" value="" style="endArrow=none;html=1;rounded=0;exitX=0.425;exitY=-0.008;exitDx=0;exitDy=0;exitPerimeter=0;labelBackgroundColor=none;strokeColor=#736CA8;fontColor=default;" parent="1" source="Bq8YwkVixV0gdx73ny14-29" edge="1">
          <mxGeometry width="50" height="50" relative="1" as="geometry">
            <mxPoint x="240" y="630" as="sourcePoint" />
            <mxPoint x="240" y="550" as="targetPoint" />
            <Array as="points">
              <mxPoint x="240" y="520" />
            </Array>
          </mxGeometry>
        </mxCell>
        <mxCell id="Bq8YwkVixV0gdx73ny14-39" value="" style="endArrow=classic;html=1;rounded=0;entryX=0.047;entryY=0.537;entryDx=0;entryDy=0;entryPerimeter=0;labelBackgroundColor=none;strokeColor=#736CA8;fontColor=default;" parent="1" target="Bq8YwkVixV0gdx73ny14-8" edge="1">
          <mxGeometry width="50" height="50" relative="1" as="geometry">
            <mxPoint x="240" y="520" as="sourcePoint" />
            <mxPoint x="320" y="520" as="targetPoint" />
            <Array as="points" />
          </mxGeometry>
        </mxCell>
        <mxCell id="Bq8YwkVixV0gdx73ny14-42" value="end" style="ellipse;whiteSpace=wrap;html=1;labelBackgroundColor=none;fillColor=#5D7F99;strokeColor=#D0CEE2;fontColor=#1A1A1A;" parent="1" vertex="1">
          <mxGeometry x="750" y="520" width="120" height="80" as="geometry" />
        </mxCell>
      </root>
    </mxGraphModel>
  </diagram>
</mxfile>
